# xmcd CD database file
#
# Track frame offsets:
#	150
#	17001
#	37971
#	60489
#	84310
#	106181
#	126650
#	151033
#	172766
#	190511
#	219921
#
# Disc length: 3168 seconds
#
# Revision: 2
# Processed by: cddbd v1.4PL0 Copyright (c) Steve Scherf et al.
# Submitted via: CDex 1.50beta8
#
DISCID=780c5e0b
DTITLE=Luke C. MacKay - Inner Nature
DYEAR=1900
DGENRE=New Age
TTITLE0=Swaying
TTITLE1=Roots
TTITLE2=Rainshadow
TTITLE3=Dreamwoven
TTITLE4=Snakes
TTITLE5=Unknown
TTITLE6=All Is One
TTITLE7=Black Eagle
TTITLE8=Arches
TTITLE9=White Eagle
TTITLE10=Body Music
EXTD=
EXTT0=
EXTT1=
EXTT2=
EXTT3=
EXTT4=
EXTT5=
EXTT6=
EXTT7=
EXTT8=
EXTT9=
EXTT10=
PLAYORDER=
